{
  "accessors": [
    {
      "bufferView": 2,
      "componentType": 5126,
      "count": 35094,
      "max": [
        0.29132577776908875,
        0.06510144472122192,
        0.2962966859340668
      ],
      "min": [
        -0.29690662026405334,
        -0.055611319839954376,
        -0.2916484773159027
      ],
      "type": "VEC3"
    },
    {
      "bufferView": 2,
      "byteOffset": 421128,
      "componentType": 5126,
      "count": 35094,
      "max": [
        0.9998898506164551,
        0.9999918937683105,
        0.999942421913147
      ],
      "min": [
        -0.9999117851257324,
        -1.0,
        -0.9997298121452332
      ],
      "type": "VEC3"
    },
    {
      "bufferView": 1,
      "componentType": 5126,
      "count": 35094,
      "max": [
        0.9953150153160095,
        0.9972580075263977
      ],
      "min": [
        0.0027419147081673145,
        0.0027420520782470703
      ],
      "type": "VEC2"
    },
    {
      "bufferView": 1,
      "byteOffset": 280752,
      "componentType": 5126,
      "count": 35094,
      "max": [
        0.9953150153160095,
        0.9972580075263977
      ],
      "min": [
        0.0027419147081673145,
        0.0027420520782470703
      ],
      "type": "VEC2"
    },
    {
      "bufferView": 1,
      "byteOffset": 561504,
      "componentType": 5126,
      "count": 35094,
      "max": [
        0.9953150153160095,
        0.9972580075263977
      ],
      "min": [
        0.0027419147081673145,
        0.0027420520782470703
      ],
      "type": "VEC2"
    },
    {
      "bufferView": 0,
      "componentType": 5125,
      "count": 149106,
      "type": "SCALAR"
    }
  ],
  "asset": {
    "extras": {
      "author": "omw100 (https://sketchfab.com/omw100)",
      "license": "SKETCHFAB Standard (https://sketchfab.com/licenses)",
      "source": "https://sketchfab.com/3d-models/seafood-38eed1ce48204d4496a8482286d518b8",
      "title": "Seafood"
    },
    "generator": "Sketchfab-16.29.0",
    "version": "2.0"
  },
  "bufferViews": [
    {
      "buffer": 0,
      "byteLength": 596424,
      "name": "floatBufferViews",
      "target": 34963
    },
    {
      "buffer": 0,
      "byteLength": 842256,
      "byteOffset": 596424,
      "byteStride": 8,
      "name": "floatBufferViews",
      "target": 34962
    },
    {
      "buffer": 0,
      "byteLength": 842256,
      "byteOffset": 1438680,
      "byteStride": 12,
      "name": "floatBufferViews",
      "target": 34962
    }
  ],
  "buffers": [
    {
      "byteLength": 2280936,
      "uri": "scene.bin"
    }
  ],
  "images": [
    {
      "uri": "textures/Material_0_baseColor.jpeg"
    },
    {
      "uri": "textures/Material_0_metallicRoughness.png"
    }
  ],
  "materials": [
    {
      "doubleSided": true,
      "name": "Material_0",
      "pbrMetallicRoughness": {
        "baseColorTexture": {
          "index": 0
        },
        "metallicRoughnessTexture": {
          "index": 1
        }
      }
    }
  ],
  "meshes": [
    {
      "name": "Object_0",
      "primitives": [
        {
          "attributes": {
            "NORMAL": 1,
            "POSITION": 0,
            "TEXCOORD_0": 2,
            "TEXCOORD_1": 3,
            "TEXCOORD_2": 4
          },
          "indices": 5,
          "material": 0,
          "mode": 4
        }
      ]
    }
  ],
  "nodes": [
    {
      "children": [
        1
      ],
      "matrix": [
        1.0,
        0.0,
        0.0,
        0.0,
        0.0,
        2.220446049250313e-16,
        -1.0,
        0.0,
        0.0,
        1.0,
        2.220446049250313e-16,
        0.0,
        0.0,
        0.0,
        0.0,
        1.0
      ],
      "name": "Sketchfab_model"
    },
    {
      "children": [
        2
      ],
      "name": "root"
    },
    {
      "children": [
        3
      ],
      "matrix": [
        1.0,
        0.0,
        0.0,
        0.0,
        0.0,
        2.220446049250313e-16,
        1.0,
        0.0,
        0.0,
        -1.0,
        2.220446049250313e-16,
        0.0,
        0.0,
        0.0,
        0.0,
        1.0
      ],
      "name": "GLTF_SceneRootNode"
    },
    {
      "children": [
        4
      ],
      "matrix": [
        1.7000083923339844,
        0.0,
        0.0,
        0.0,
        0.0,
        1.7000083923339844,
        0.0,
        0.0,
        0.0,
        0.0,
        1.7000083923339844,
        0.0,
        0.0,
        0.0,
        0.0,
        1.0
      ],
      "name": "high_poly_0"
    },
    {
      "mesh": 0,
      "name": "Object_4"
    }
  ],
  "samplers": [
    {
      "magFilter": 9729,
      "minFilter": 9987,
      "wrapS": 10497,
      "wrapT": 10497
    }
  ],
  "scene": 0,
  "scenes": [
    {
      "name": "Sketchfab_Scene",
      "nodes": [
        0
      ]
    }
  ],
  "textures": [
    {
      "sampler": 0,
      "source": 0
    },
    {
      "sampler": 0,
      "source": 1
    }
  ]
}
