{
  "accessors": [
    {
      "bufferView": 2,
      "componentType": 5126,
      "count": 36655,
      "max": [
        0.12175671756267548,
        0.06497189402580261,
        0.2911282479763031
      ],
      "min": [
        -0.12686997652053833,
        -0.05589026212692261,
        -0.28581950068473816
      ],
      "type": "VEC3"
    },
    {
      "bufferView": 2,
      "byteOffset": 439860,
      "componentType": 5126,
      "count": 36655,
      "max": [
        0.9999377131462097,
        0.9999840259552002,
        0.9999476671218872
      ],
      "min": [
        -0.999995231628418,
        -1.0,
        -0.9999959468841553
      ],
      "type": "VEC3"
    },
    {
      "bufferView": 1,
      "componentType": 5126,
      "count": 36655,
      "max": [
        0.9957603812217712,
        0.996973991394043
      ],
      "min": [
        0.0030260782223194838,
        0.0030260682106018066
      ],
      "type": "VEC2"
    },
    {
      "bufferView": 1,
      "byteOffset": 293240,
      "componentType": 5126,
      "count": 36655,
      "max": [
        0.9957603812217712,
        0.996973991394043
      ],
      "min": [
        0.0030260782223194838,
        0.0030260682106018066
      ],
      "type": "VEC2"
    },
    {
      "bufferView": 1,
      "byteOffset": 586480,
      "componentType": 5126,
      "count": 36655,
      "max": [
        0.9957603812217712,
        0.996973991394043
      ],
      "min": [
        0.0030260782223194838,
        0.0030260682106018066
      ],
      "type": "VEC2"
    },
    {
      "bufferView": 0,
      "componentType": 5125,
      "count": 149814,
      "type": "SCALAR"
    }
  ],
  "asset": {
    "extras": {
      "author": "omw100 (https://sketchfab.com/omw100)",
      "license": "SKETCHFAB Standard (https://sketchfab.com/licenses)",
      "source": "https://sketchfab.com/3d-models/tacos-f0a0ea064aff43cb9f1208d869e3be8b",
      "title": "Tacos"
    },
    "generator": "Sketchfab-16.29.0",
    "version": "2.0"
  },
  "bufferViews": [
    {
      "buffer": 0,
      "byteLength": 599256,
      "name": "floatBufferViews",
      "target": 34963
    },
    {
      "buffer": 0,
      "byteLength": 879720,
      "byteOffset": 599256,
      "byteStride": 8,
      "name": "floatBufferViews",
      "target": 34962
    },
    {
      "buffer": 0,
      "byteLength": 879720,
      "byteOffset": 1478976,
      "byteStride": 12,
      "name": "floatBufferViews",
      "target": 34962
    }
  ],
  "buffers": [
    {
      "byteLength": 2358696,
      "uri": "scene.bin"
    }
  ],
  "images": [
    {
      "uri": "textures/Material_0_baseColor.jpeg"
    },
    {
      "uri": "textures/Material_0_metallicRoughness.png"
    }
  ],
  "materials": [
    {
      "doubleSided": true,
      "name": "Material_0",
      "pbrMetallicRoughness": {
        "baseColorTexture": {
          "index": 0
        },
        "metallicRoughnessTexture": {
          "index": 1
        }
      }
    }
  ],
  "meshes": [
    {
      "name": "Object_0",
      "primitives": [
        {
          "attributes": {
            "NORMAL": 1,
            "POSITION": 0,
            "TEXCOORD_0": 2,
            "TEXCOORD_1": 3,
            "TEXCOORD_2": 4
          },
          "indices": 5,
          "material": 0,
          "mode": 4
        }
      ]
    }
  ],
  "nodes": [
    {
      "children": [
        1
      ],
      "matrix": [
        1.0,
        0.0,
        0.0,
        0.0,
        0.0,
        2.220446049250313e-16,
        -1.0,
        0.0,
        0.0,
        1.0,
        2.220446049250313e-16,
        0.0,
        0.0,
        0.0,
        0.0,
        1.0
      ],
      "name": "Sketchfab_model"
    },
    {
      "children": [
        2
      ],
      "name": "root"
    },
    {
      "children": [
        3
      ],
      "matrix": [
        1.0,
        0.0,
        0.0,
        0.0,
        0.0,
        2.220446049250313e-16,
        1.0,
        0.0,
        0.0,
        -1.0,
        2.220446049250313e-16,
        0.0,
        0.0,
        0.0,
        0.0,
        1.0
      ],
      "name": "GLTF_SceneRootNode"
    },
    {
      "children": [
        4
      ],
      "matrix": [
        1.7332592010498047,
        0.0,
        0.0,
        0.0,
        0.0,
        1.7332592010498047,
        0.0,
        0.0,
        0.0,
        0.0,
        1.7332592010498047,
        0.0,
        0.0,
        0.0,
        0.0,
        1.0
      ],
      "name": "high_poly_0"
    },
    {
      "mesh": 0,
      "name": "Object_4"
    }
  ],
  "samplers": [
    {
      "magFilter": 9729,
      "minFilter": 9987,
      "wrapS": 10497,
      "wrapT": 10497
    }
  ],
  "scene": 0,
  "scenes": [
    {
      "name": "Sketchfab_Scene",
      "nodes": [
        0
      ]
    }
  ],
  "textures": [
    {
      "sampler": 0,
      "source": 0
    },
    {
      "sampler": 0,
      "source": 1
    }
  ]
}
